<?xml version="1.0" encoding="UTF-8"?>
<svg version="1.1" xmlns="http://www.w3.org/2000/svg" width="887" height="1068">
<path d="M0 0 C292.71 0 585.42 0 887 0 C887 352.44 887 704.88 887 1068 C594.29 1068 301.58 1068 0 1068 C0 715.56 0 363.12 0 0 Z " fill="#000000" transform="translate(0,0)"/>
<path d="M0 0 C77.55 0 155.1 0 235 0 C235 0.33 235 0.66 235 1 C234.351521 1.10022461 233.70304199 1.20044922 233.03491211 1.30371094 C210.51105239 4.75393482 210.51105239 4.75393482 189 12 C187.3798904 12.57643398 185.75501675 13.13970749 184.125 13.6875 C135.47740262 31.38356063 97.71598987 70.07181472 75.80322266 116.27685547 C74.00816757 120.12776696 72.42743172 123.99869534 71 128 C70.77602539 128.60972656 70.55205078 129.21945313 70.32128906 129.84765625 C66.31156928 140.8391898 63.45474141 151.82971188 61.46740019 163.36015314 C61.16230808 165.08329418 60.83670884 166.80296549 60.48797834 168.51780754 C58.81543293 177.26522305 58.71358701 185.837516 58.73257446 194.69920349 C58.72883167 196.36768789 58.72422765 198.03617055 58.71884382 199.70465046 C58.70667478 204.26201135 58.70686709 208.8192985 58.70923257 213.37667191 C58.70964232 218.30345343 58.69858605 223.23021181 58.68911743 228.15698242 C58.67253657 237.80249186 58.66700908 247.44797685 58.66589268 257.09349936 C58.66494018 264.94479861 58.66081984 272.79608984 58.65449142 280.64738655 C58.63688178 302.95196268 58.62765134 325.25651961 58.62915237 347.56110274 C58.62927224 349.36305781 58.62927224 349.36305781 58.62939453 351.20141602 C58.62947629 352.40420321 58.62955805 353.6069904 58.62964229 354.84622569 C58.63045363 374.29984921 58.61135377 393.75339501 58.5831178 413.20699608 C58.55429338 433.22569119 58.54058295 453.24434855 58.54230535 473.26306492 C58.54296628 484.48403363 58.53760591 495.70492101 58.51594925 506.9258709 C58.49761055 516.48852442 58.49349254 526.05105983 58.5069681 535.61372345 C58.51343631 540.48014752 58.51384219 545.34634589 58.4962616 550.21274757 C58.39657019 579.7002767 59.99039952 607.65035598 69 636 C69.31106689 637.00522705 69.31106689 637.00522705 69.62841797 638.03076172 C84.53106341 685.59266012 121.89833789 724.87126937 165.10498047 748.13330078 C193.84856119 762.98837816 223.72574624 769.16031921 255.90489197 769.14044189 C257.59557572 769.14303045 259.28625886 769.14604496 260.97694117 769.1494453 C265.59533601 769.15746091 270.21371527 769.15930181 274.83211625 769.16004276 C279.82417787 769.16190285 284.81623158 769.1694549 289.80828857 769.17617798 C300.71153173 769.18972289 311.61477118 769.19577995 322.51802135 769.20018864 C329.33455593 769.20295745 336.15108912 769.20719594 342.96762276 769.21169281 C361.8653336 769.22388023 380.76304333 769.23418073 399.66075802 769.2375679 C400.86874199 769.23778747 402.07672596 769.23800703 403.3213155 769.23823325 C404.53207728 769.23845153 405.74283905 769.23866981 406.99029058 769.2388947 C409.44347823 769.23933816 411.89666587 769.23978472 414.34985352 769.24023438 C415.56670165 769.2404558 416.78354978 769.24067723 418.0372721 769.24090537 C437.74201187 769.24485103 457.44671461 769.26230034 477.15144008 769.2855939 C497.4141752 769.30935246 517.67689178 769.32177179 537.93964106 769.32293582 C549.3034238 769.32385002 560.66715827 769.32953801 572.03092766 769.34775543 C581.70944071 769.36321731 591.38789056 769.36824114 601.06641363 769.36001733 C605.99661999 769.35613235 610.92669931 769.35693415 615.85688972 769.37107468 C643.57939851 769.63790867 643.57939851 769.63790867 671 766 C672.19003201 765.75419685 672.19003201 765.75419685 673.40410507 765.50342798 C678.26258447 764.46808513 682.42955283 763.02355676 687 761 C690.41779998 759.81410223 693.86708331 758.7276686 697.3125 757.625 C703.80816048 755.50897238 710.06649685 753.37029626 716.0625 750.04296875 C718 749 718 749 720.34790039 748.08691406 C759.08792125 732.21003172 793.57121016 693.10089771 809.7109375 655.08984375 C810.73673294 652.5768356 811.70337998 650.05142363 812.6640625 647.51171875 C813.88385963 644.30529295 815.22983101 641.19528855 816.625 638.0625 C827.95121863 610.59732448 827.59942086 579.86967836 827.49358058 550.68957162 C827.48021257 545.76396506 827.49036894 540.83839286 827.49734497 535.91278076 C827.50734099 526.30652872 827.49625934 516.70041624 827.47764437 507.09418158 C827.45670953 495.88148921 827.45702107 484.6688257 827.45798953 473.45611747 C827.45898696 453.44223273 827.44076767 433.42841232 827.41162109 413.41455078 C827.38341615 394.03693471 827.36928151 374.65937516 827.37060547 355.28173828 C827.37072534 353.48895825 827.37072534 353.48895825 827.37084763 351.65996043 C827.37096869 349.8701332 827.37096869 349.8701332 827.3710922 348.04414785 C827.37247455 325.90789398 827.36068153 303.77166389 827.34278577 281.63541775 C827.33677608 273.83589718 827.33462944 266.036381 827.33372116 258.23685837 C827.33235176 248.72845986 827.32335055 239.22010152 827.30505554 229.71172003 C827.29587437 224.86889435 827.2897082 220.02611972 827.29224396 215.18328476 C827.29445826 210.73869897 827.28725215 206.2942255 827.27294691 201.84966309 C827.26936567 200.25396286 827.26901437 198.65825084 827.27248149 197.06255035 C827.30177503 181.88409003 826.02342497 166.95303974 822.625 152.125 C822.30172729 150.6694873 822.30172729 150.6694873 821.97192383 149.18457031 C820.56506298 143.01033082 818.92056871 137.04468162 816.69921875 131.109375 C816 129 816 129 816 126 C815.34 126 814.68 126 814 126 C813.75507812 125.28199219 813.51015625 124.56398438 813.2578125 123.82421875 C801.0593062 90.04697545 777.09141578 59.87827201 748 39 C747.20851563 38.401875 746.41703125 37.80375 745.6015625 37.1875 C738.22008392 31.74586391 730.14934699 27.45305689 722.0859375 23.12207031 C720.3425829 22.18428266 718.60770581 21.23075746 716.875 20.2734375 C708.39851304 15.7703038 699.37640907 12.83461716 690.29907227 9.79882812 C688.19404745 9.06742309 686.14023451 8.25943213 684.07421875 7.42578125 C679.20394232 5.57887597 674.18109697 4.75087217 669.0625 3.875 C668.12470703 3.70613281 667.18691406 3.53726562 666.22070312 3.36328125 C660.49329736 2.35232846 654.78657927 1.5816254 649 1 C649 0.67 649 0.34 649 0 C727.54 0 806.08 0 887 0 C887 352.44 887 704.88 887 1068 C594.29 1068 301.58 1068 0 1068 C0 715.56 0 363.12 0 0 Z " fill="#FEFEFE" transform="translate(0,0)"/>
<path d="M0 0 C1.39439577 -0.00271746 2.78879009 -0.0062826 4.18318176 -0.01062012 C7.93305953 -0.01965499 11.68282595 -0.01623752 15.4327054 -0.00986195 C19.37712663 -0.00475743 23.32153905 -0.00950548 27.26596069 -0.01263428 C33.88451835 -0.0162602 40.50303119 -0.01151017 47.12158203 -0.00195312 C54.75154602 0.00893779 62.38140316 0.00539568 70.01136458 -0.00560594 C76.58921232 -0.01470736 83.16702807 -0.01595043 89.74488008 -0.0107286 C93.66190425 -0.00762572 97.57887833 -0.00715313 101.4958992 -0.01380157 C105.17814022 -0.01961648 108.86024454 -0.01550307 112.54247093 -0.00401306 C114.52283419 -0.0001461 116.50320912 -0.00601595 118.48356628 -0.01226807 C146.15592543 0.11782416 170.96615129 12.91190681 190.41552734 31.94628906 C201.8457686 43.91585677 213.66943359 62.08408345 213.66943359 79.25878906 C214.32943359 79.25878906 214.98943359 79.25878906 215.66943359 79.25878906 C216.75508603 87.16758041 216.81268335 94.98204017 216.80314636 102.95423889 C216.80501679 104.44123356 216.80731842 105.92822775 216.81001168 107.41522115 C216.81610704 111.48401433 216.81599878 115.55278689 216.81481731 119.62158358 C216.81461274 124.0163057 216.82013731 128.4110213 216.82487488 132.80574036 C216.83316868 141.40787686 216.83592911 150.01000651 216.83648726 158.61214668 C216.83696285 165.60366496 216.83901977 172.59518097 216.84218788 179.58669853 C216.85098962 199.41451126 216.8556078 219.24231858 216.85485741 239.07013328 C216.85479747 240.67232526 216.85479747 240.67232526 216.85473633 242.30688477 C216.85469545 243.37631809 216.85465457 244.44575141 216.85461245 245.5475918 C216.85420572 262.8913149 216.8637832 280.23501632 216.87787469 297.57873315 C216.8922339 315.39257374 216.89914519 333.20640374 216.89828092 351.02025026 C216.89794888 361.01934408 216.90069936 371.01841514 216.91145897 381.01750374 C216.92055778 389.52751982 216.92274417 398.03750282 216.91594955 406.54752166 C216.91268172 410.88874468 216.91263724 415.22990421 216.9213028 419.57112122 C216.92915664 423.54654488 216.9277478 427.52185456 216.91901866 431.4972754 C216.91748126 432.93388266 216.91930888 434.37049837 216.92487874 435.80709565 C216.95082801 442.97584266 216.79405757 449.39103369 214.66943359 456.25878906 C214.44647293 457.92356205 214.23654381 459.5901746 214.04443359 461.25878906 C211.20877519 477.3349627 199.65555648 492.81404245 188.66943359 504.25878906 C187.40099609 505.58910156 187.40099609 505.58910156 186.10693359 506.94628906 C185.30255859 507.70941406 184.49818359 508.47253906 183.66943359 509.25878906 C183.18087891 509.75378906 182.69232422 510.24878906 182.18896484 510.75878906 C162.1107596 529.90621658 135.08661732 534.80413445 108.38818359 534.55175781 C106.79606443 534.54733074 105.20394084 534.54428024 103.61181641 534.54260254 C97.79762093 534.5270618 91.98351977 534.48517965 86.16943359 534.44628906 C66.61693359 534.35347656 66.61693359 534.35347656 46.66943359 534.25878906 C46.66943359 492.01878906 46.66943359 449.77878906 46.66943359 406.25878906 C61.18943359 406.25878906 75.70943359 406.25878906 90.66943359 406.25878906 C90.66943359 306.59878906 90.66943359 206.93878906 90.66943359 104.25878906 C63.60943359 104.25878906 36.54943359 104.25878906 8.66943359 104.25878906 C8.66943359 141.54878906 8.66943359 178.83878906 8.66943359 217.25878906 C-28.29056641 217.25878906 -65.25056641 217.25878906 -103.33056641 217.25878906 C-103.37086944 185.48208564 -103.37086944 185.48208564 -103.37939453 172.14941406 C-103.38532435 162.94953859 -103.39228927 153.74967229 -103.40600586 144.54980469 C-103.41599151 137.84910815 -103.42242907 131.14841906 -103.4246549 124.44771528 C-103.42595542 120.90170335 -103.42899947 117.35571273 -103.43629646 113.80970764 C-103.44438749 109.84546518 -103.44455504 105.88124332 -103.4440918 101.91699219 C-103.44768707 100.74885986 -103.45128235 99.58072754 -103.45498657 98.37719727 C-103.43637591 83.64737207 -103.43637591 83.64737207 -101.08056641 77.19628906 C-100.08506054 74.42411484 -99.15244806 71.66686725 -98.30322266 68.84472656 C-90.8623665 44.64315402 -74.14504272 24.60889391 -51.90087891 12.37207031 C-35.04276242 3.58862014 -35.04276242 3.58862014 -26.33056641 4.25878906 C-26.33056641 3.59878906 -26.33056641 2.93878906 -26.33056641 2.25878906 C-17.48971104 0.47326404 -9.00480215 -0.02851877 0 0 Z " fill="#FDFDFD" transform="translate(490.33056640625,129.7412109375)"/>
<path d="M0 0 C1.34212197 0.00147296 2.68424452 0.00249149 4.02636719 0.00305176 C8.96550364 0.0082636 13.90462773 0.02222481 18.84375 0.03515625 C29.89875 0.05578125 40.95375 0.07640625 52.34375 0.09765625 C52.34375 42.33765625 52.34375 84.57765625 52.34375 128.09765625 C42.44375 128.09765625 32.54375 128.09765625 22.34375 128.09765625 C22.34375 228.08765625 22.34375 328.07765625 22.34375 431.09765625 C48.74375 431.09765625 75.14375 431.09765625 102.34375 431.09765625 C102.34375 393.47765625 102.34375 355.85765625 102.34375 317.09765625 C139.30375 317.09765625 176.26375 317.09765625 214.34375 317.09765625 C214.54526517 348.31011719 214.54526517 348.31011719 214.58789062 361.5234375 C214.61740629 370.599267 214.6518482 379.67486221 214.72094727 388.75048828 C214.77127711 395.36415797 214.80315622 401.97763518 214.81419247 408.5914911 C214.82062892 412.08340933 214.83540796 415.5747776 214.87240028 419.06651688 C215.21086776 452.34758667 209.14723639 480.50012525 185.421875 505.05078125 C174.52148543 516.00587792 162.56381026 522.42109994 148.34375 528.09765625 C147.4878125 528.47019531 146.631875 528.84273437 145.75 529.2265625 C135.07352667 533.80460724 124.64375225 534.3945672 113.13012695 534.37231445 C111.7357608 534.3766724 110.34139704 534.38185911 108.94703674 534.38780212 C105.19050786 534.40109067 101.43408021 534.40178195 97.67753243 534.39923882 C94.52459903 534.39816165 91.37168548 534.4030717 88.21875638 534.40784425 C80.76895044 534.41890554 73.31919493 534.41939669 65.86938477 534.41333008 C58.22532458 534.40730017 50.58144891 534.41958405 42.93742019 534.44090015 C36.33911427 534.45861262 29.74086655 534.46450221 23.14253777 534.4612624 C19.21744937 534.45946384 15.29249245 534.46194043 11.36742592 534.47597694 C7.66953941 534.4887081 3.97193657 534.48646977 0.27405357 534.47356606 C-1.70040274 534.47013617 -3.67486836 534.48126599 -5.64929199 534.49313354 C-18.35059998 534.41997241 -30.83882697 532.60407906 -42.46875 527.28515625 C-43.27006348 526.93042236 -44.07137695 526.57568848 -44.89697266 526.21020508 C-47.16120845 525.19498941 -49.4102985 524.15258089 -51.65625 523.09765625 C-52.70941406 522.61296875 -53.76257813 522.12828125 -54.84765625 521.62890625 C-75.76696315 511.15402768 -92.10950973 489.87683957 -99.65625 468.09765625 C-100.04974651 465.77371218 -100.40052991 463.44076589 -100.65625 461.09765625 C-101.31625 461.09765625 -101.97625 461.09765625 -102.65625 461.09765625 C-102.97544939 459.78676943 -103.28610947 458.47380377 -103.59375 457.16015625 C-103.85478516 456.06380859 -103.85478516 456.06380859 -104.12109375 454.9453125 C-105.76825021 446.18051643 -105.8007702 437.50672237 -105.78996277 428.61894226 C-105.79183329 427.15542235 -105.79413495 425.69190294 -105.79682809 424.22838432 C-105.80292261 420.22432137 -105.80281528 416.22027939 -105.80163372 412.21621287 C-105.80142912 407.89094449 -105.80695408 403.56568274 -105.81169128 399.24041748 C-105.81998529 390.77329832 -105.82274555 382.30618613 -105.82330366 373.83906325 C-105.82377937 366.9548448 -105.82583688 360.07062863 -105.82900429 353.1864109 C-105.83780712 333.65554845 -105.84242419 314.12469148 -105.84167381 294.59382703 C-105.84163386 293.54168491 -105.8415939 292.48954279 -105.84155273 291.40551758 C-105.84151185 290.35208657 -105.84147097 289.29865557 -105.84142885 288.21330241 C-105.84102239 271.14064226 -105.85059293 254.06800416 -105.8646911 236.99535038 C-105.87906276 219.45269343 -105.88596086 201.91004724 -105.88509732 184.36738425 C-105.88476565 174.52354075 -105.88749989 164.67972038 -105.89827538 154.83588219 C-105.90739072 146.45517056 -105.90954709 138.07449256 -105.90276595 129.69377812 C-105.8995061 125.42091818 -105.89942473 121.1481227 -105.9081192 116.87526894 C-105.9160087 112.95761544 -105.9145279 109.04007726 -105.90583507 105.12242649 C-105.90430547 103.71131989 -105.9060957 102.30020458 -105.91169515 100.88910826 C-105.94307825 92.41356267 -105.35144517 84.40976792 -103.65625 76.09765625 C-102.99625 76.09765625 -102.33625 76.09765625 -101.65625 76.09765625 C-101.56988281 75.4428125 -101.48351562 74.78796875 -101.39453125 74.11328125 C-98.65594423 56.32502793 -89.007683 41.79155042 -76.65625 29.09765625 C-75.78033203 28.14632812 -75.78033203 28.14632812 -74.88671875 27.17578125 C-70.3385301 22.36130521 -65.19014986 18.70635902 -59.65625 15.09765625 C-58.8621875 14.57042969 -58.068125 14.04320313 -57.25 13.5 C-39.67878923 2.34684511 -20.32801499 -0.07477349 0 0 Z " fill="#FEFEFE" transform="translate(284.65625,105.90234375)"/>
<path d="M0 0 C27.25328284 -0.987221 50.91463319 6.95621773 71.15234375 25.7109375 C81.23501176 35.49078135 87.45461915 47.49079112 91.54003906 60.75097656 C92.48767413 63.99512433 92.48767413 63.99512433 93.65722656 66.60253906 C96.30009172 73.7282388 95.76627713 81.48531807 95.77050781 88.97363281 C95.78275391 90.10671875 95.795 91.23980469 95.80761719 92.40722656 C95.82270974 101.0904727 94.80066695 108.60918678 91.54003906 116.68847656 C90.7810894 118.59979061 90.08308519 120.53528751 89.40722656 122.47753906 C85.95862719 132.12329291 81.19104137 139.32385176 74.58300781 147.09863281 C73.99648438 147.84757812 73.40996094 148.59652344 72.80566406 149.36816406 C59.4850897 165.88046529 38.15321376 175.10329694 17.58300781 178.09863281 C0.42151756 179.07582059 -16.83420451 179.12145419 -32.41699219 171.09863281 C-34.0528125 170.34066406 -34.0528125 170.34066406 -35.72167969 169.56738281 C-43.42274867 165.96391905 -50.08398879 161.82849302 -56.41699219 156.09863281 C-57.17496094 155.43347656 -57.93292969 154.76832031 -58.71386719 154.08300781 C-68.37631912 145.08693188 -77.11207076 131.87766234 -80.41699219 119.09863281 C-80.91173164 117.70092627 -81.41211091 116.30520799 -81.91699219 114.91113281 C-88.84942345 93.86750897 -86.6180933 70.0468195 -77.41699219 50.09863281 C-65.88551878 27.54318361 -47.26518765 11.03104011 -23.22167969 3.03613281 C-15.51291137 0.94289024 -7.95135693 0.32447962 0 0 Z " fill="#040404" transform="translate(610.4169921875,889.9013671875)"/>
<path d="M0 0 C14.581875 -0.144375 29.16375 -0.28875 44.1875 -0.4375 C48.74715576 -0.50122803 53.30681152 -0.56495605 58.00463867 -0.63061523 C63.68615723 -0.66223145 63.68615723 -0.66223145 66.36787415 -0.66810608 C68.19290716 -0.67867225 70.01789966 -0.70289821 71.84260559 -0.73902893 C90.26974945 -1.08482053 108.12600401 2.48552223 123 14 C123.63550781 14.43441406 124.27101563 14.86882813 124.92578125 15.31640625 C132.41974105 20.88287306 138.31560541 31.07949046 140.609375 40.078125 C141.44673432 46.34157271 141.28621266 52.63222169 141.06494141 58.93505859 C141.01068117 60.66037096 141.00522131 62.38712809 141.01171875 64.11328125 C140.68881086 75.58500886 134.09567004 85.85404711 126.30859375 93.890625 C119.44632879 100.16071481 111.33429972 104.02322754 103 108 C103 112.03014271 105.00985859 113.88400428 107.4375 116.875 C112.13716799 122.82070386 116.48362214 128.94580672 120.76220703 135.203125 C123.08323301 138.57250393 125.45011106 141.90955921 127.8125 145.25 C128.31023926 145.95552002 128.80797852 146.66104004 129.32080078 147.38793945 C132.01152992 151.1994472 134.71494892 155.00131624 137.43359375 158.79296875 C138.26636841 159.95940918 138.26636841 159.95940918 139.1159668 161.14941406 C140.18777609 162.65023533 141.2633383 164.14838504 142.34301758 165.64355469 C146 170.77499803 146 170.77499803 146 173 C115.2641578 175.99099875 115.2641578 175.99099875 107.22851562 171.42529297 C102.96664555 167.23323986 100.61858566 162.05123514 98.25 156.62939453 C96.22724266 152.37449286 93.41065694 148.79319623 90.5625 145.0625 C89.49180931 143.59687034 88.42544508 142.12807093 87.36328125 140.65625 C86.55238037 139.53669922 86.55238037 139.53669922 85.72509766 138.39453125 C82.53803937 133.97071755 79.38909021 129.5204343 76.25 125.0625 C75.64099854 124.20342041 75.03199707 123.34434082 74.40454102 122.45922852 C73.84307373 121.65928467 73.28160645 120.85934082 72.703125 120.03515625 C72.20458008 119.3275415 71.70603516 118.61992676 71.19238281 117.89086914 C70 116 70 116 69 113 C56.46 113 43.92 113 31 113 C31 132.8 31 152.6 31 173 C20.77 173 10.54 173 0 173 C0 115.91 0 58.82 0 0 Z " fill="#040404" transform="translate(361,892)"/>
<path d="M0 0 C9.57 0 19.14 0 29 0 C37.59808538 8.59808538 37.59808538 8.59808538 39.5 12.40234375 C41.70908228 16.55292211 44.23422524 20.10558164 47.1875 23.75 C49.61190259 26.89781303 52.03607675 30.04575603 54.453125 33.19921875 C59.74672054 40.10173389 65.09567949 46.95831002 70.4765625 53.79296875 C78.11965584 63.50122704 85.65208339 73.29624208 93.14453125 83.12109375 C104.51043301 98.11420474 104.51043301 98.11420474 116.30859375 112.765625 C118 115 118 115 118 117 C118.66 117 119.32 117 120 117 C120 78.39 120 39.78 120 0 C130.23 0 140.46 0 151 0 C151 57.09 151 114.18 151 173 C142.42 173 133.84 173 125 173 C121.15066321 168.50910708 117.38136064 164.03257094 113.75 159.375 C113.27892822 158.77308838 112.80785645 158.17117676 112.32250977 157.55102539 C107.51222497 151.39511634 102.75248975 145.20055869 98 139 C91.75972563 130.86591102 85.48587325 122.75918505 79.18603516 114.67114258 C75.64843425 110.12714688 72.12763252 105.57098709 68.625 101 C65.08640583 96.38998207 61.4876851 91.83482281 57.84765625 87.3046875 C52.1869009 80.24370303 46.74487411 73.02480642 41.35058594 65.75927734 C39.02407907 62.63863366 36.67384867 59.58635926 34.1328125 56.63671875 C32 54 32 54 32 52 C31.34 52 30.68 52 30 52 C30 91.93 30 131.86 30 173 C20.1 173 10.2 173 0 173 C0 115.91 0 58.82 0 0 Z " fill="#050505" transform="translate(736,892)"/>
<path d="M0 0 C10.23 0 20.46 0 31 0 C31 23.76 31 47.52 31 72 C57.73 72 84.46 72 112 72 C112 48.24 112 24.48 112 0 C122.23 0 132.46 0 143 0 C143 57.09 143 114.18 143 173 C132.77 173 122.54 173 112 173 C112 149.24 112 125.48 112 101 C85.27 101 58.54 101 31 101 C31 124.76 31 148.52 31 173 C20.77 173 10.54 173 0 173 C0 115.91 0 58.82 0 0 Z " fill="#050505" transform="translate(0,892)"/>
<path d="M0 0 C10.23 0 20.46 0 31 0 C31.02187378 5.0106665 31.02187378 5.0106665 31.04418945 10.12255859 C31.09460251 21.17874423 31.16120963 32.23479003 31.23571491 43.29083824 C31.28057312 49.9918945 31.3196432 56.69288731 31.34643555 63.39404297 C31.37250881 69.86510172 31.41294034 76.33592819 31.46318626 82.8068428 C31.47982766 85.2714511 31.49135886 87.73609954 31.49761391 90.20075607 C31.50728437 93.66191514 31.53538021 97.1224836 31.56762695 100.58349609 C31.56547432 102.10049103 31.56547432 102.10049103 31.5632782 103.64813232 C31.74091079 117.19400858 36.71630481 128.17044365 45.89453125 138.0546875 C53.42261017 145.01012962 63.42690158 146.38254675 73.3125 146.3125 C74.5653479 146.30404053 74.5653479 146.30404053 75.84350586 146.29541016 C87.02664626 146.07619673 97.62773081 143.37226919 105.78125 135.21875 C118.61408952 119.24317427 116.17067184 99.19522312 116.31640625 79.8828125 C116.33701709 77.57111271 116.35801452 75.25941634 116.37937927 72.94772339 C116.43417398 66.90792638 116.48376839 60.8680978 116.53222656 54.82824707 C116.5827557 48.64718874 116.63827662 42.46617538 116.69335938 36.28515625 C116.80041866 24.19014142 116.90151405 12.09508768 117 0 C127.23 0 137.46 0 148 0 C148.06796836 14.36119091 148.12292708 28.72227373 148.15543652 43.08358955 C148.17104498 49.75322432 148.19219477 56.42271157 148.22631836 63.09228516 C148.25908408 69.53731291 148.27688922 75.98222916 148.28463173 82.42733383 C148.29014444 84.877519 148.30090885 87.32769857 148.31719017 89.77783585 C148.47435866 114.42588487 148.47435866 114.42588487 145 126 C144.7720726 126.78490814 144.5441452 127.56981628 144.30931091 128.37850952 C141.53531662 137.24417578 137.82056726 144.72781427 132 152 C131.21689453 153.12148437 131.21689453 153.12148437 130.41796875 154.265625 C129.95003906 154.83796875 129.48210937 155.4103125 129 156 C128.34 156 127.68 156 127 156 C126.67 156.99 126.34 157.98 126 159 C109.35138977 174.25178806 86.36098376 176.99862885 64.85253906 176.17724609 C55.58242717 175.60123606 46.53089055 173.73226461 38 170 C38 169.34 38 168.68 38 168 C37.27554688 167.89945313 36.55109375 167.79890625 35.8046875 167.6953125 C25.63142254 165.1732496 16.88067638 155.06867736 11.421875 146.54296875 C5 135.05769231 5 135.05769231 5 129 C4.34 129 3.68 129 3 129 C-0.52704296 114.93415301 -0.38834469 101.14018667 -0.29296875 86.71875 C-0.28736224 84.20813248 -0.28309714 81.69751164 -0.28010559 79.18688965 C-0.26873988 72.63078491 -0.23934516 66.0748847 -0.20599365 59.51885986 C-0.17345238 52.80818663 -0.16156204 46.097449 -0.14648438 39.38671875 C-0.11446648 26.25770893 -0.06176742 13.1289036 0 0 Z " fill="#050505" transform="translate(178,892)"/>
<path d="M0 0 C0 0.66 0 1.32 0 2 C0.88171875 2.1134375 1.7634375 2.226875 2.671875 2.34375 C14.24721679 4.62621176 24.87810291 14.05976223 31.55859375 23.5 C40.66482203 39.29400027 44.48776118 55.62461352 41.34765625 73.76953125 C40.42759935 76.97196107 39.32272694 79.94242052 38 83 C37.51402344 84.15886719 37.02804687 85.31773437 36.52734375 86.51171875 C29.38214596 102.13656026 18.28332318 112.06593492 2.38671875 118.2734375 C-12.25266736 122.72994457 -30.12301778 121.41508297 -43.72265625 114.64453125 C-58.49995125 106.33090978 -69.09236293 92.27904986 -73.8828125 76 C-77.3381871 58.09045276 -75.26233628 39.35778863 -65 24 C-57.96889201 13.6619533 -47.44974391 4.30369417 -35.16015625 0.953125 C-33.79749115 0.70069986 -32.43126848 0.4669043 -31.0625 0.25 C-29.96748169 0.06679199 -29.96748169 0.06679199 -28.8503418 -0.12011719 C-19.2893017 -1.5870953 -9.52662575 -1.81459538 0 0 Z " fill="#FDFDFD" transform="translate(632,919)"/>
<path d="M0 0 C8.70375 -0.061875 17.4075 -0.12375 26.375 -0.1875 C29.10313965 -0.21481201 31.8312793 -0.24212402 34.64208984 -0.27026367 C36.83170124 -0.27903476 39.02131757 -0.28667722 41.2109375 -0.29296875 C42.32573486 -0.30831665 43.44053223 -0.32366455 44.58911133 -0.33947754 C55.62367238 -0.34313056 64.34864406 2.0116859 73 9 C78.40177724 14.67879146 79.34529027 19.88917928 79.3125 27.4375 C79.32861328 28.17548828 79.34472656 28.91347656 79.36132812 29.67382812 C79.36851029 37.75375988 75.79043309 43.02430347 70.44921875 48.87890625 C61.34756575 56.76119904 49.89243991 57.15333704 38.4765625 57.09765625 C37.49969482 57.09664917 36.52282715 57.09564209 35.51635742 57.09460449 C31.88589292 57.08939357 28.25544521 57.07543236 24.625 57.0625 C16.49875 57.041875 8.3725 57.02125 0 57 C0 38.19 0 19.38 0 0 Z " fill="#FDFDFD" transform="translate(392,921)"/>
<path d="M0 0 C0.66 0.33 1.32 0.66 2 1 C-12.90384145 16.21433815 -12.90384145 16.21433815 -19 19 C-13.37095532 11.92348669 -6.6903009 6.04509384 0 0 Z " fill="#2E2E2E" transform="translate(130,44)"/>
<path d="M0 0 C0.66 0.33 1.32 0.66 2 1 C-1.66666667 4.66666667 -5.33333333 8.33333333 -9 12 C-9.66 11.67 -10.32 11.34 -11 11 C-7.6189962 6.86378916 -4.33409466 3.18683431 0 0 Z " fill="#D7D7D7" transform="translate(581,928)"/>
</svg>
