<svg xmlns="http://www.w3.org/2000/svg" viewBox="0 0 189 60">
  <title>Huron Logo</title>
  <g fill="none" fill-rule="evenodd">
    <path
      d="M85.109 19.41v9.648H74.068v-9.649H70v23.207h4.068v-9.781h11.04v9.781h4.065V19.41H85.11Zm8.823 13.36V19.41h4.069v13.194c0 4.31 2.213 6.596 5.85 6.596 3.637 0 5.818-2.152 5.818-6.43V19.41h4.065v13.162c0 6.927-3.89 10.402-9.95 10.402-6.063 0-9.852-3.482-9.852-10.21m24.561-13.355h10.315c2.917 0 5.186.862 6.677 2.322a7.033 7.033 0 0 1 1.916 5.005v.066c0 3.813-2.27 6.101-5.488 7.028l6.25 8.777h-4.827l-5.686-8.092h-5.098v8.092h-4.059V19.409Zm10.016 11.505c2.918 0 4.759-1.525 4.759-3.878v-.069c0-2.486-1.783-3.845-4.791-3.845h-5.925v7.801l5.957-.009Zm12.033.166v-.081c0-6.531 5.025-11.999 12.13-11.999 7.106 0 12.068 5.403 12.068 11.933V31c0 6.533-5.024 12.001-12.133 12.001-7.109 0-12.065-5.39-12.065-11.92m19.932 0v-.081c0-4.506-3.27-8.255-7.867-8.255-4.596 0-7.802 3.703-7.802 8.202V31c0 4.508 3.273 8.224 7.867 8.224 4.593 0 7.806-3.635 7.806-8.143m8.356-11.67h3.77L185 35.454V19.409h4v23.207h-3.404l-12.762-16.51v16.51h-4V19.41ZM44.633 60H15.367C6.884 59.991.01 53.116 0 44.633V15.367C.009 6.884 6.884.01 15.367 0h29.266C53.116.009 59.99 6.884 60 15.367v29.266C59.991 53.116 53.116 59.99 44.633 60Z"
      fill="#00558C"
    />
    <path
      d="M42.859 10.184a7.714 7.714 0 0 1 7.691 7.689v26.165a7.715 7.715 0 0 1-7.691 7.692h-5.573V41.83h3.473V18.24h-6.411v8.757h-8.7v-9.124a7.715 7.715 0 0 1 7.692-7.689ZM21.71 8.27v9.97h-2.317v23.588h6.233v-8.9h8.712v9.196a7.715 7.715 0 0 1-7.692 7.692h-9.508a7.715 7.715 0 0 1-7.688-7.692V15.959a7.71 7.71 0 0 1 7.688-7.689h4.572Z"
      fill="#FFF"
    />
  </g>
</svg>
